<svg width="15" height="14" viewBox="0 0 15 14" fill="none" xmlns="http://www.w3.org/2000/svg">
<path d="M12.4583 5.25H11.5833V4.08332C11.5833 1.83176 9.75159 0 7.5 0C5.24841 0 3.41668 1.83176 3.41668 4.08332V5.25H2.54168C2.38046 5.25 2.25 5.38046 2.25 5.54168V12.8334C2.25 13.4768 2.77322 14 3.41668 14H11.5834C12.2268 14 12.75 13.4768 12.75 12.8333V5.54168C12.75 5.38046 12.6195 5.25 12.4583 5.25ZM8.3733 11.3428C8.38241 11.4251 8.35594 11.5077 8.30068 11.5696C8.24542 11.6313 8.16623 11.6667 8.08335 11.6667H6.91668C6.8338 11.6667 6.75461 11.6313 6.69935 11.5696C6.64409 11.5078 6.61759 11.4251 6.62672 11.3428L6.81072 9.68825C6.51193 9.47092 6.33335 9.12712 6.33335 8.75C6.33335 8.10657 6.85657 7.58332 7.50003 7.58332C8.14348 7.58332 8.6667 8.10655 8.6667 8.75C8.6667 9.12712 8.48812 9.47092 8.18934 9.68825L8.3733 11.3428ZM9.83332 5.25H5.16668V4.08332C5.16668 2.79675 6.21342 1.75 7.5 1.75C8.78658 1.75 9.83332 2.79675 9.83332 4.08332V5.25Z" fill="#828282"/>
</svg>
