<svg width="32" height="32" viewBox="0 0 32 32" fill="none" xmlns="http://www.w3.org/2000/svg">
<path d="M16.8473 16.8755C21.1896 16.8755 24.7223 13.3428 24.7223 9.00049C24.7223 4.6582 21.1896 1.12549 16.8473 1.12549C12.505 1.12549 8.97229 4.6582 8.97229 9.00049C8.97229 13.3428 12.505 16.8755 16.8473 16.8755ZM16.8473 9.37549C15.5612 9.37549 14.5148 8.32934 14.5148 7.04321C14.5148 5.8855 15.3649 4.92966 16.4723 4.74884V4.00049C16.4723 3.79346 16.6403 3.62549 16.8473 3.62549C17.0543 3.62549 17.2223 3.79346 17.2223 4.00049V4.74884C18.3297 4.92965 19.1798 5.8855 19.1798 7.04321C19.1798 7.25024 19.0118 7.41821 18.8048 7.41821C18.5978 7.41821 18.4298 7.25024 18.4298 7.04321C18.4298 6.17065 17.7199 5.46094 16.8473 5.46094C15.9747 5.46094 15.2648 6.17065 15.2648 7.04321C15.2648 7.91577 15.9747 8.62549 16.8473 8.62549C18.1334 8.62549 19.1798 9.67187 19.1798 10.958C19.1798 12.1157 18.3297 13.0716 17.2223 13.2524V14.0005C17.2223 14.2075 17.0543 14.3755 16.8473 14.3755C16.6403 14.3755 16.4723 14.2075 16.4723 14.0005V13.2524C15.3649 13.0716 14.5148 12.1157 14.5148 10.958C14.5148 10.751 14.6827 10.583 14.8898 10.583C15.0968 10.583 15.2648 10.751 15.2648 10.958C15.2648 11.8306 15.9747 12.5403 16.8473 12.5403C17.7199 12.5403 18.4298 11.8306 18.4298 10.958C18.4298 10.0854 17.7199 9.37549 16.8473 9.37549Z" fill="#333333"/>
<path d="M26.9723 9.00051C26.9723 11.331 26.1832 13.5496 24.7327 15.345L24.7956 14.511C24.8112 14.3045 24.6564 14.1245 24.4499 14.1089C24.2458 14.0938 24.0631 14.2478 24.0475 14.4549L23.904 16.3635C23.8883 16.5701 24.0431 16.75 24.2497 16.7656L26.1584 16.9092C26.3623 16.9252 26.5455 16.7706 26.5607 16.5633C26.5763 16.3567 26.4215 16.1768 26.215 16.1612L25.0849 16.0763C26.7845 14.1033 27.7223 11.6211 27.7223 9.00051C27.7223 6.05593 26.5602 3.29689 24.4499 1.23146C24.3024 1.08693 24.0651 1.08889 23.9196 1.23733C23.7746 1.38528 23.7775 1.62258 23.9254 1.7676C25.8903 3.69045 26.9723 6.2593 26.9723 9.00051Z" fill="#333333"/>
<path d="M30.5441 22.0682C29.9445 20.9937 28.7008 20.4859 27.5206 20.8318L20.3182 22.9481C19.9087 23.5783 18.5336 25.3585 16.0636 25.3585C15.5323 25.3585 14.9503 25.2759 14.317 25.0814C14.1188 25.0208 14.0074 24.8111 14.0685 24.6131C14.129 24.4156 14.3375 24.3028 14.5367 24.3646C17.3605 25.2302 18.9479 23.5832 19.5287 22.7817C19.2345 21.6328 18.3703 20.7017 17.1881 20.3462L12.1168 18.8211C12.0426 18.7991 11.9625 18.8004 11.8883 18.8253L7.75256 20.2299V28.1781C10.418 28.983 16.2076 30.5002 17.5997 30.8633C17.631 30.8716 17.6627 30.8755 17.6945 30.8755C17.7467 30.8755 17.7985 30.8646 17.8468 30.8431L29.3229 25.7325C29.9923 25.4344 30.5089 24.8648 30.7408 24.1695C30.9723 23.4742 30.9005 22.7083 30.5441 22.0682Z" fill="#333333"/>
<path d="M6.62757 18.8052H1.50061C1.29358 18.8052 1.12561 18.9731 1.12561 19.1802V28.8762C1.12561 29.0833 1.29358 29.2512 1.50061 29.2512H6.62757C6.8346 29.2512 7.00257 29.0833 7.00257 28.8762V19.1802C7.00257 18.9731 6.8346 18.8052 6.62757 18.8052ZM4.54358 21.5359H3.5846C3.37757 21.5359 3.2096 21.3679 3.2096 21.1609C3.2096 20.9539 3.37757 20.7859 3.5846 20.7859H4.54358C4.75061 20.7859 4.91858 20.9539 4.91858 21.1609C4.91858 21.3679 4.75061 21.5359 4.54358 21.5359Z" fill="#333333"/>
</svg>
