<svg width="36" height="24" viewBox="0 0 36 24" fill="none" xmlns="http://www.w3.org/2000/svg">
<g clip-path="url(#clip0_4319_4858)">
<path d="M0.249319 3C0.249319 1.48098 1.48073 0.249563 2.99976 0.249563H32.9998C34.5188 0.249563 35.7502 1.48098 35.7502 3V21C35.7502 22.519 34.5188 23.7504 32.9998 23.7504H2.99976C1.48073 23.7504 0.249319 22.519 0.249319 21V3Z" fill="white" stroke="#E0E0E0" stroke-width="0.499127"/>
<path d="M29.337 12.0783C29.337 6.70929 24.8557 2.99838 19.9456 3H15.7201C10.7515 2.99822 6.66187 6.71042 6.66187 12.0783C6.66187 16.989 10.7516 21.0237 15.7201 20.9999H19.9456C24.8553 21.0235 29.337 16.9877 29.337 12.0783Z" fill="#0079BE"/>
<path d="M15.7468 3.75952C11.2066 3.76093 7.52774 7.4485 7.52612 11.9996C7.52726 16.55 11.2063 20.237 15.7468 20.2386C20.288 20.2373 23.968 16.55 23.9685 11.9996C23.9679 7.44839 20.2881 3.76114 15.7468 3.75952Z" fill="white"/>
<path d="M10.5508 11.9792C10.5551 9.75525 11.9413 7.85881 13.8959 7.10522V16.8521C11.9413 16.0989 10.555 14.2034 10.5508 11.9792V11.9792ZM17.6254 16.8545V7.10549C19.5809 7.8573 20.9692 9.75482 20.9727 11.9798C20.9691 14.2054 19.5809 16.1016 17.6254 16.8548V16.8545Z" fill="#0079BE"/>
</g>
<defs>
<clipPath id="clip0_4319_4858">
<rect width="36" height="24" fill="white"/>
</clipPath>
</defs>
</svg>
