<svg width="24" height="24" viewBox="0 0 24 24" fill="none" xmlns="http://www.w3.org/2000/svg">
<path fill-rule="evenodd" clip-rule="evenodd" d="M6.53695 5.95049H5.00571C3.94763 5.95049 3.06935 6.76826 2.99386 7.82404L2.00609 21.6552C1.96632 22.2136 2.15995 22.7634 2.54146 23.1732C2.92355 23.5829 3.45778 23.8157 4.01794 23.8157H19.9837C20.5439 23.8157 21.0781 23.5829 21.4602 23.1732C21.8417 22.7634 22.0353 22.2136 21.9956 21.6552L21.0078 7.82404C20.9323 6.76826 20.054 5.95049 18.9959 5.95049H17.4757V5.66234C17.4757 2.6385 15.0247 0.1875 12.0008 0.1875C9.08764 0.1875 6.39517 2.50768 6.52599 5.66234C6.53002 5.758 6.53349 5.85425 6.53695 5.95049ZM17.4757 7.67938V12.0016C17.4757 12.4788 17.0884 12.8661 16.6112 12.8661C16.134 12.8661 15.7468 12.4788 15.7468 12.0016V7.67938H8.25489V12.0016C8.25489 12.4788 7.86761 12.8661 7.39044 12.8661C6.91326 12.8661 6.52599 12.4788 6.52599 12.0016C6.52599 12.0016 6.60091 9.9817 6.57613 7.67938H5.00571C4.85472 7.67938 4.7291 7.79637 4.71873 7.94678L3.73036 21.7779C3.72459 21.8581 3.75227 21.9364 3.80702 21.9952C3.86177 22.0534 3.93784 22.0869 4.01794 22.0869H19.9837C20.0638 22.0869 20.1399 22.0534 20.1946 21.9952C20.2494 21.9364 20.2771 21.8581 20.2713 21.7779L19.2829 7.94678C19.2726 7.79637 19.1469 7.67938 18.9959 7.67938H17.4757ZM15.7468 5.95049V5.66234C15.7468 3.59343 14.0697 1.9164 12.0008 1.9164C9.93192 1.9164 8.25489 3.59343 8.25489 5.66234V5.95049H15.7468Z" fill="#333333"/>
</svg>
